<svg width="68" height="66" viewBox="0 0 68 66" fill="none" xmlns="http://www.w3.org/2000/svg">
<path d="M28.71 28.5723C27.1425 28.5723 25.905 29.9473 25.905 31.6248C25.905 33.3023 27.17 34.6773 28.71 34.6773C30.2775 34.6773 31.515 33.3023 31.515 31.6248C31.5425 29.9473 30.2775 28.5723 28.71 28.5723ZM38.7475 28.5723C37.18 28.5723 35.9425 29.9473 35.9425 31.6248C35.9425 33.3023 37.2075 34.6773 38.7475 34.6773C40.315 34.6773 41.5525 33.3023 41.5525 31.6248C41.5525 29.9473 40.315 28.5723 38.7475 28.5723Z" fill="black"/>
<path d="M52.1124 5.49976H15.2624C12.1549 5.49976 9.62488 8.02976 9.62488 11.1648V48.3448C9.62488 51.4798 12.1549 54.0098 15.2624 54.0098H46.4474L44.9899 48.9223L48.5099 52.1948L51.8374 55.2748L57.7499 60.4998V11.1648C57.7499 8.02976 55.2199 5.49976 52.1124 5.49976ZM41.4974 41.4148C41.4974 41.4148 40.5074 40.2323 39.6824 39.1873C43.2849 38.1698 44.6599 35.9148 44.6599 35.9148C43.5324 36.6573 42.4599 37.1798 41.4974 37.5373C40.1224 38.1148 38.8024 38.4998 37.5099 38.7198C34.8699 39.2148 32.4499 39.0773 30.3874 38.6923C28.8199 38.3898 27.4724 37.9498 26.3449 37.5098C25.7124 37.2623 25.0249 36.9598 24.3374 36.5748C24.2549 36.5198 24.1724 36.4923 24.0899 36.4373C24.0349 36.4098 24.0074 36.3823 23.9799 36.3548C23.4849 36.0798 23.2099 35.8873 23.2099 35.8873C23.2099 35.8873 24.5299 38.0873 28.0224 39.1323C27.1974 40.1773 26.1799 41.4148 26.1799 41.4148C20.1024 41.2223 17.7924 37.2348 17.7924 37.2348C17.7924 28.3798 21.7524 21.2023 21.7524 21.2023C25.7124 18.2323 29.4799 18.3148 29.4799 18.3148L29.7549 18.6448C24.8049 20.0748 22.5224 22.2473 22.5224 22.2473C22.5224 22.2473 23.1274 21.9173 24.1449 21.4498C27.0874 20.1573 29.4249 19.7998 30.3874 19.7173C30.5524 19.6898 30.6899 19.6623 30.8549 19.6623C32.5324 19.4423 34.4299 19.3873 36.4099 19.6073C39.0224 19.9098 41.8274 20.6798 44.6874 22.2473C44.6874 22.2473 42.5149 20.1848 37.8399 18.7548L38.2249 18.3148C38.2249 18.3148 41.9924 18.2323 45.9524 21.2023C45.9524 21.2023 49.9124 28.3798 49.9124 37.2348C49.9124 37.2348 47.5749 41.2223 41.4974 41.4148V41.4148Z" fill="black"/>
</svg>
