<svg width="56" height="56" viewBox="0 0 56 56" fill="none" xmlns="http://www.w3.org/2000/svg">
<path d="M47.8342 6.19507L30.4701 19.0916L33.6811 11.4828L47.8342 6.19507Z" fill="#E2761B" stroke="#E2761B" stroke-width="0.174514" stroke-linecap="round" stroke-linejoin="round"/>
<path d="M7.7485 6.19556L24.973 19.2143L21.919 11.4833L7.7485 6.19556Z" fill="#E4761B" stroke="#E4761B" stroke-width="0.174514" stroke-linecap="round" stroke-linejoin="round"/>
<path d="M41.5867 36.0897L36.9621 43.175L46.857 45.8974L49.7016 36.2468L41.5867 36.0897Z" fill="#E4761B" stroke="#E4761B" stroke-width="0.174514" stroke-linecap="round" stroke-linejoin="round"/>
<path d="M5.91614 36.2468L8.74326 45.8974L18.6382 43.175L14.0136 36.0897L5.91614 36.2468Z" fill="#E4761B" stroke="#E4761B" stroke-width="0.174514" stroke-linecap="round" stroke-linejoin="round"/>
<path d="M18.0798 24.118L15.3224 28.2889L25.1476 28.7252L24.7985 18.1671L18.0798 24.118Z" fill="#E4761B" stroke="#E4761B" stroke-width="0.174514" stroke-linecap="round" stroke-linejoin="round"/>
<path d="M37.5031 24.1181L30.6971 18.045L30.4702 28.7253L40.2779 28.289L37.5031 24.1181Z" fill="#E4761B" stroke="#E4761B" stroke-width="0.174514" stroke-linecap="round" stroke-linejoin="round"/>
<path d="M18.6382 43.175L24.5367 40.2956L19.4409 36.3167L18.6382 43.175Z" fill="#E4761B" stroke="#E4761B" stroke-width="0.174514" stroke-linecap="round" stroke-linejoin="round"/>
<path d="M31.0461 40.2956L36.9621 43.175L36.1418 36.3167L31.0461 40.2956Z" fill="#E4761B" stroke="#E4761B" stroke-width="0.174514" stroke-linecap="round" stroke-linejoin="round"/>
<path d="M36.962 43.1744L31.046 40.2949L31.5172 44.1517L31.4649 45.7746L36.962 43.1744Z" fill="#D7C1B3" stroke="#D7C1B3" stroke-width="0.174514" stroke-linecap="round" stroke-linejoin="round"/>
<path d="M18.6381 43.1754L24.1353 45.7756L24.1004 44.1526L24.5366 40.2959L18.6381 43.1754Z" fill="#D7C1B3" stroke="#D7C1B3" stroke-width="0.174514" stroke-linecap="round" stroke-linejoin="round"/>
<path d="M24.2225 33.7685L19.3012 32.32L22.774 30.7319L24.2225 33.7685Z" fill="#233447" stroke="#233447" stroke-width="0.174514" stroke-linecap="round" stroke-linejoin="round"/>
<path d="M31.3601 33.7685L32.8086 30.7319L36.2988 32.32L31.3601 33.7685Z" fill="#233447" stroke="#233447" stroke-width="0.174514" stroke-linecap="round" stroke-linejoin="round"/>
<path d="M18.638 43.1748L19.4757 36.0896L14.0134 36.2467L18.638 43.1748Z" fill="#CD6116" stroke="#CD6116" stroke-width="0.174514" stroke-linecap="round" stroke-linejoin="round"/>
<path d="M36.1243 36.0896L36.962 43.1748L41.5866 36.2467L36.1243 36.0896Z" fill="#CD6116" stroke="#CD6116" stroke-width="0.174514" stroke-linecap="round" stroke-linejoin="round"/>
<path d="M40.2777 28.2886L30.4701 28.7249L31.3775 33.7683L32.826 30.7318L36.3163 32.3198L40.2777 28.2886Z" fill="#CD6116" stroke="#CD6116" stroke-width="0.174514" stroke-linecap="round" stroke-linejoin="round"/>
<path d="M19.3012 32.3198L22.7915 30.7318L24.2225 33.7683L25.1474 28.7249L15.3223 28.2886L19.3012 32.3198Z" fill="#CD6116" stroke="#CD6116" stroke-width="0.174514" stroke-linecap="round" stroke-linejoin="round"/>
<path d="M15.3223 28.2886L19.4408 36.3162L19.3012 32.3198L15.3223 28.2886Z" fill="#E4751F" stroke="#E4751F" stroke-width="0.174514" stroke-linecap="round" stroke-linejoin="round"/>
<path d="M36.3163 32.3198L36.1418 36.3162L40.2778 28.2886L36.3163 32.3198Z" fill="#E4751F" stroke="#E4751F" stroke-width="0.174514" stroke-linecap="round" stroke-linejoin="round"/>
<path d="M25.1475 28.7251L24.2225 33.7685L25.3743 39.7194L25.6361 31.8838L25.1475 28.7251Z" fill="#E4751F" stroke="#E4751F" stroke-width="0.174514" stroke-linecap="round" stroke-linejoin="round"/>
<path d="M30.4701 28.7251L29.9989 31.8663L30.2083 39.7194L31.3776 33.7685L30.4701 28.7251Z" fill="#E4751F" stroke="#E4751F" stroke-width="0.174514" stroke-linecap="round" stroke-linejoin="round"/>
<path d="M31.3776 33.7684L30.2083 39.7193L31.046 40.2952L36.1418 36.3163L36.3163 32.3199L31.3776 33.7684Z" fill="#F6851B" stroke="#F6851B" stroke-width="0.174514" stroke-linecap="round" stroke-linejoin="round"/>
<path d="M19.3012 32.3199L19.4408 36.3163L24.5366 40.2952L25.3743 39.7193L24.2225 33.7684L19.3012 32.3199Z" fill="#F6851B" stroke="#F6851B" stroke-width="0.174514" stroke-linecap="round" stroke-linejoin="round"/>
<path d="M31.4648 45.7751L31.5172 44.1521L31.0809 43.7682H24.5017L24.1004 44.1521L24.1353 45.7751L18.6381 43.1748L20.5577 44.7454L24.4494 47.4504H31.1333L35.0424 44.7454L36.962 43.1748L31.4648 45.7751Z" fill="#C0AD9E" stroke="#C0AD9E" stroke-width="0.174514" stroke-linecap="round" stroke-linejoin="round"/>
<path d="M31.046 40.2951L30.2083 39.7192H25.3743L24.5366 40.2951L24.1003 44.1519L24.5017 43.768H31.0809L31.5172 44.1519L31.046 40.2951Z" fill="#161616" stroke="#161616" stroke-width="0.174514" stroke-linecap="round" stroke-linejoin="round"/>
<path d="M48.5671 19.9298L50.0505 12.8096L47.8342 6.19556L31.046 18.6558L37.503 24.1181L46.63 26.7882L48.6544 24.4322L47.7818 23.804L49.1779 22.53L48.0959 21.6924L49.492 20.6278L48.5671 19.9298Z" fill="#763D16" stroke="#763D16" stroke-width="0.174514" stroke-linecap="round" stroke-linejoin="round"/>
<path d="M5.54953 12.8104L7.03289 19.9305L6.09052 20.6286L7.48663 21.6931L6.4221 22.5308L7.81821 23.8047L6.94564 24.433L8.95254 26.7889L18.0796 24.1188L24.5366 18.6566L7.7484 6.19629L5.54953 12.8104Z" fill="#763D16" stroke="#763D16" stroke-width="0.174514" stroke-linecap="round" stroke-linejoin="round"/>
<path d="M46.63 26.788L37.503 24.1179L40.2777 28.2888L36.1418 36.3164L41.5866 36.2466H49.7015L46.63 26.788Z" fill="#F6851B" stroke="#F6851B" stroke-width="0.174514" stroke-linecap="round" stroke-linejoin="round"/>
<path d="M18.0796 24.1179L8.95252 26.788L5.91599 36.2466H14.0134L19.4408 36.3164L15.3223 28.2888L18.0796 24.1179Z" fill="#F6851B" stroke="#F6851B" stroke-width="0.174514" stroke-linecap="round" stroke-linejoin="round"/>
<path d="M30.47 28.7248L31.0459 18.6554L33.6985 11.4829H21.9189L24.5366 18.6554L25.1474 28.7248L25.3568 31.901L25.3743 39.7192H30.2083L30.2432 31.901L30.47 28.7248Z" fill="#F6851B" stroke="#F6851B" stroke-width="0.174514" stroke-linecap="round" stroke-linejoin="round"/>
</svg>
