<svg width="53" height="53" viewBox="0 0 53 53" fill="none" xmlns="http://www.w3.org/2000/svg">
<path d="M37.5416 4.41675H15.4583C9.36015 4.41675 4.41663 9.36027 4.41663 15.4584V37.5418C4.41663 43.6399 9.36015 48.5834 15.4583 48.5834H37.5416C43.6398 48.5834 48.5833 43.6399 48.5833 37.5418V15.4584C48.5833 9.36027 43.6398 4.41675 37.5416 4.41675Z" stroke="black" stroke-width="4.41667" stroke-linecap="round" stroke-linejoin="round"/>
<path d="M35.3332 25.1084C35.6057 26.9463 35.2918 28.8233 34.4361 30.4725C33.5804 32.1217 32.2264 33.4591 30.5668 34.2944C28.9072 35.1297 27.0265 35.4205 25.1921 35.1253C23.3577 34.8301 21.6631 33.964 20.3493 32.6503C19.0355 31.3365 18.1695 29.6419 17.8743 27.8075C17.5791 25.9731 17.8699 24.0924 18.7052 22.4328C19.5405 20.7732 20.8779 19.4192 22.5271 18.5635C24.1762 17.7077 26.0533 17.3938 27.8911 17.6664C29.7658 17.9444 31.5014 18.8179 32.8415 20.158C34.1817 21.4981 35.0552 23.2337 35.3332 25.1084Z" stroke="black" stroke-width="4.41667" stroke-linecap="round" stroke-linejoin="round"/>
<path d="M38.6459 14.3542H38.6684" stroke="black" stroke-width="4.41667" stroke-linecap="round" stroke-linejoin="round"/>
</svg>
