<svg width="53" height="53" viewBox="0 0 53 53" fill="none" xmlns="http://www.w3.org/2000/svg">
<path d="M50.7917 6.6245C48.677 8.11618 46.3355 9.25708 43.8575 10.0033C42.5275 8.474 40.76 7.39011 38.7939 6.89817C36.8278 6.40623 34.7581 6.52997 32.8646 7.25267C30.9712 7.97536 29.3454 9.26214 28.207 10.939C27.0687 12.6158 26.4729 14.6017 26.5 16.6283V18.8366C22.6192 18.9372 18.7737 18.0765 15.306 16.3311C11.8383 14.5857 8.85616 12.0098 6.62504 8.83283C6.62504 8.83283 -2.20829 28.7078 17.6667 37.5412C13.1187 40.6283 7.70085 42.1763 2.20837 41.9578C22.0834 52.9995 46.375 41.9578 46.375 16.562C46.373 15.9469 46.3139 15.3333 46.1984 14.7291C48.4522 12.5064 50.0427 9.70008 50.7917 6.6245V6.6245Z" stroke="black" stroke-width="4.41667" stroke-linecap="round" stroke-linejoin="round"/>
</svg>
